<?xml version="1.0" standalone="no"?>
<!DOCTYPE svg PUBLIC "-//W3C//DTD SVG 20010904//EN"
 "http://www.w3.org/TR/2001/REC-SVG-20010904/DTD/svg10.dtd">
<svg version="1.0" xmlns="http://www.w3.org/2000/svg"
 width="260.000000pt" height="260.000000pt" viewBox="0 0 260.000000 260.000000"
 preserveAspectRatio="xMidYMid meet">
<metadata>
Created by potrace 1.14, written by Peter Selinger 2001-2017
</metadata>
<g transform="translate(0.000000,260.000000) scale(0.100000,-0.100000)"
fill="#000000" stroke="none">
<path d="M152 2168 l3 -102 288 0 287 1 0 -759 0 -758 114 0 c82 0 116 4 119
13 3 6 6 -41 6 -105 l1 -118 118 0 117 0 0 368 0 367 325 0 c358 0 390 -4 455
-58 63 -51 80 -108 90 -297 3 -58 8 -145 10 -195 5 -85 10 -128 21 -167 5 -16
21 -18 150 -18 132 0 144 1 144 18 0 10 -13 31 -29 46 -47 45 -57 96 -66 337
-6 180 -13 235 -38 292 -21 50 -76 105 -133 132 -19 9 -34 18 -34 20 0 3 17
15 38 28 87 56 161 157 182 252 12 51 15 199 6 245 -27 127 -114 238 -228 290
-53 23 -209 63 -236 59 -33 -5 -335 3 -326 9 6 4 10 47 10 105 l0 97 -699 0
-698 0 3 -102z m905 -104 c-3 -3 -12 -4 -19 -1 -8 3 -5 6 6 6 11 1 17 -2 13
-5z m240 0 c-3 -3 -12 -4 -19 -1 -8 3 -5 6 6 6 11 1 17 -2 13 -5z m160 0 c-3
-3 -12 -4 -19 -1 -8 3 -5 6 6 6 11 1 17 -2 13 -5z m461 -221 c65 -19 134 -78
157 -135 20 -51 27 -172 12 -231 -20 -81 -64 -134 -137 -166 -71 -31 -97 -33
-430 -36 l-316 -3 0 294 0 294 331 -1 c263 -1 341 -4 383 -16z"/>
</g>
</svg>
